{
    "asset" : {
        "generator" : "Khronos glTF Blender I/O v3.4.50",
        "version" : "2.0"
    },
    "scene" : 0,
    "scenes" : [
        {
            "name" : "Scene",
            "nodes" : [
                1
            ]
        }
    ],
    "nodes" : [
        {
            "mesh" : 0,
            "name" : "signboard",
            "translation" : [
                0,
                21.83167839050293,
                -2.5033950805664062e-06
            ]
        },
        {
            "children" : [
                0
            ],
            "name" : "signboard_grp"
        }
    ],
    "materials" : [
        {
            "doubleSided" : true,
            "name" : "signboard_mat.001",
            "normalTexture" : {
                "index" : 0
            },
            "occlusionTexture" : {
                "index" : 1
            },
            "pbrMetallicRoughness" : {
                "baseColorTexture" : {
                    "index" : 2
                },
                "metallicRoughnessTexture" : {
                    "index" : 1
                }
            }
        }
    ],
    "meshes" : [
        {
            "name" : "Mesh",
            "primitives" : [
                {
                    "attributes" : {
                        "POSITION" : 0,
                        "TEXCOORD_0" : 1,
                        "NORMAL" : 2
                    },
                    "indices" : 3,
                    "material" : 0
                }
            ]
        }
    ],
    "textures" : [
        {
            "sampler" : 0,
            "source" : 0
        },
        {
            "sampler" : 0,
            "source" : 1
        },
        {
            "sampler" : 0,
            "source" : 2
        }
    ],
    "images" : [
        {
            "mimeType" : "image/png",
            "name" : "signboard_Normal",
            "uri" : "signboard_Normal.png"
        },
        {
            "mimeType" : "image/png",
            "name" : "signboard_AO-signboard_Roughness-signboard_Metallic",
            "uri" : "signboard_AO-signboard_Roughness-signboard_Metallic.png"
        },
        {
            "mimeType" : "image/png",
            "name" : "signboard_bcolor",
            "uri" : "signboard_bcolor.png"
        }
    ],
    "accessors" : [
        {
            "bufferView" : 0,
            "componentType" : 5126,
            "count" : 12866,
            "max" : [
                24.4726505279541,
                21.83167839050293,
                2.183173894882202
            ],
            "min" : [
                -24.472652435302734,
                -21.83167839050293,
                -2.183168888092041
            ],
            "type" : "VEC3"
        },
        {
            "bufferView" : 1,
            "componentType" : 5126,
            "count" : 12866,
            "type" : "VEC2"
        },
        {
            "bufferView" : 2,
            "componentType" : 5126,
            "count" : 12866,
            "type" : "VEC3"
        },
        {
            "bufferView" : 3,
            "componentType" : 5123,
            "count" : 19302,
            "type" : "SCALAR"
        }
    ],
    "bufferViews" : [
        {
            "buffer" : 0,
            "byteLength" : 154392,
            "byteOffset" : 0,
            "target" : 34962
        },
        {
            "buffer" : 0,
            "byteLength" : 102928,
            "byteOffset" : 154392,
            "target" : 34962
        },
        {
            "buffer" : 0,
            "byteLength" : 154392,
            "byteOffset" : 257320,
            "target" : 34962
        },
        {
            "buffer" : 0,
            "byteLength" : 38604,
            "byteOffset" : 411712,
            "target" : 34963
        }
    ],
    "samplers" : [
        {
            "magFilter" : 9729,
            "minFilter" : 9987
        }
    ],
    "buffers" : [
        {
            "byteLength" : 450316,
            "uri" : "signboard.bin"
        }
    ]
}
