<?xml version="1.0" encoding="UTF-8"?>
<svg id="Ebene_1" data-name="Ebene 1" xmlns="http://www.w3.org/2000/svg" viewBox="0 0 653.03 61.31" preserveAspectRatio="none">
  <defs>
    <style>
      .cls-1 {
        fill: #dfd9ed;
        stroke-width: 0px;
      }
    </style>
  </defs>
  <path class="cls-1" d="M20.49,61.31c-6.55,0-11.6-1.83-15.16-5.48-3.56-3.65-5.33-8.77-5.33-15.35h8.73c0,4.2,1.04,7.46,3.13,9.78,2.08,2.32,5.03,3.49,8.84,3.49s6.54-1.15,8.55-3.46c2-2.31,3-5.58,3-9.8V.84h8.73v39.64c0,6.61-1.81,11.73-5.42,15.37-3.61,3.64-8.64,5.46-15.08,5.46ZM16.96,8.82V.84h19.57v7.98h-19.57Z"/>
  <path class="cls-1" d="M54.53,60.47V.84h8.73v59.63h-8.73ZM54.53,8.82V.84h39.47v7.98h-39.47ZM54.53,34.6v-7.98h31.91v7.98h-31.91ZM54.53,60.47v-7.98h39.47v7.98h-39.47Z"/>
  <path class="cls-1" d="M104.61,60.47V.84h8.4v59.63h-8.4ZM120.57,36.11l-6.47-24.69h-2.44V.84h5.96l6.47,25.62h.34l.84,9.66h-4.7ZM123,36.11l1.26-9.66h.5l6.47-25.62h5.96v10.58h-2.44l-6.47,24.69h-5.29ZM135.85,60.47V.84h8.4v59.63h-8.4Z"/>
  <path class="cls-1" d="M157.38,60.47V.84h8.73v59.63h-8.73ZM157.38,8.82V.84h39.47v7.98h-39.47ZM157.38,34.6v-7.98h31.91v7.98h-31.91ZM157.38,60.47v-7.98h39.47v7.98h-39.47Z"/>
  <path class="cls-1" d="M208.38,60.47V.84h8.73v59.63h-8.73ZM213.67,41.49l.76-8.31c4.31,0,8.03-.9,11.17-2.71,3.13-1.81,5.72-4.24,7.75-7.31,2.03-3.07,3.54-6.52,4.54-10.37.99-3.85,1.49-7.83,1.49-11.95h8.65c0,5.29-.77,10.37-2.31,15.24-1.54,4.87-3.78,9.22-6.72,13.04-2.94,3.82-6.54,6.84-10.79,9.05-4.26,2.21-9.1,3.32-14.53,3.32ZM240.71,60.47l-15.12-29.06,7.56-4.28,17.72,33.34h-10.16Z"/>
  <path class="cls-1" d="M321.57,61.31c-6.55,0-11.6-1.83-15.16-5.48-3.56-3.65-5.33-8.77-5.33-15.35h8.73c0,4.2,1.04,7.46,3.13,9.78,2.08,2.32,5.03,3.49,8.84,3.49s6.54-1.15,8.55-3.46c2-2.31,3-5.58,3-9.8V.84h8.73v39.64c0,6.61-1.81,11.73-5.42,15.37-3.61,3.64-8.64,5.46-15.07,5.46ZM318.04,8.82V.84h19.57v7.98h-19.57Z"/>
  <path class="cls-1" d="M355.6,60.47V.84h8.73v59.63h-8.73ZM355.6,8.82V.84h39.47v7.98h-39.47ZM355.6,34.6v-7.98h31.91v7.98h-31.91ZM355.6,60.47v-7.98h39.47v7.98h-39.47Z"/>
  <path class="cls-1" d="M405.68,60.47V.84h8.4v59.63h-8.4ZM421.64,36.11l-6.47-24.69h-2.44V.84h5.96l6.47,25.62h.34l.84,9.66h-4.7ZM424.08,36.11l1.26-9.66h.5l6.47-25.62h5.96v10.58h-2.44l-6.47,24.69h-5.29ZM436.92,60.47V.84h8.4v59.63h-8.4Z"/>
  <path class="cls-1" d="M476.93,61.31c-14.67,0-22-10.08-22-30.23s7.33-31.07,22-31.07,22,10.36,22,31.07-7.33,30.23-22,30.23ZM476.93,53.58c8.68,0,13.02-7.5,13.02-22.51s-4.34-23.35-13.02-23.35-13.02,7.78-13.02,23.35,4.34,22.51,13.02,22.51Z"/>
  <path class="cls-1" d="M510.71,60.47l-6.72-59.63h8.82l5.04,52.91h.84l5.5-37.79h8.4l-2.81,8.31h-1.68l-4.41,36.2h-12.98ZM533.01,60.47l-4.41-36.2h-1.68l-2.73-8.31h8.4l5.42,37.79h.84l5.04-52.91h8.82l-6.72,59.63h-12.98Z"/>
  <path class="cls-1" d="M561.63,8.82V.84h36.28v7.98h-36.28ZM561.63,60.47v-7.98h36.28v7.98h-36.28ZM575.36,60.47V.84h8.73v59.63h-8.73Z"/>
  <path class="cls-1" d="M609.36,8.82V.84h43.67v7.98h-43.67ZM626.83,60.47V.84h8.73v59.63h-8.73Z"/>
</svg>